<?xml version="1.0" standalone="no"?>
<!DOCTYPE svg PUBLIC "-//W3C//DTD SVG 20010904//EN"
 "http://www.w3.org/TR/2001/REC-SVG-20010904/DTD/svg10.dtd">
<svg version="1.0" xmlns="http://www.w3.org/2000/svg"
 width="800.000000pt" height="800.000000pt" viewBox="0 0 800.000000 800.000000"
 preserveAspectRatio="xMidYMid meet">

<g transform="translate(0.000000,800.000000) scale(0.100000,-0.100000)"
fill="#000000" stroke="none">
<path d="M3630 7904 c-548 -52 -1087 -221 -1565 -492 -140 -79 -385 -247 -525
-358 -173 -138 -456 -421 -594 -594 -177 -221 -338 -473 -463 -725 -537 -1075
-537 -2395 0 -3470 125 -251 285 -501 463 -725 138 -173 421 -456 594 -594
146 -116 390 -282 537 -365 1116 -630 2517 -668 3658 -98 171 85 259 136 435
253 224 149 401 294 601 493 482 483 816 1051 1004 1706 192 671 192 1459 0
2130 -87 302 -213 605 -363 870 -79 140 -247 385 -358 525 -138 173 -421 456
-594 594 -140 111 -386 279 -525 358 -404 229 -869 392 -1320 462 -291 45
-692 58 -985 30z m664 -385 c202 -23 257 -41 318 -103 99 -102 66 -283 -64
-350 l-57 -28 82 -164 c45 -90 79 -165 77 -167 -8 -7 -221 20 -230 29 -5 5
-36 70 -69 144 -56 126 -62 135 -89 138 -33 3 -33 2 -48 -176 -4 -45 -10 -84
-14 -87 -4 -2 -50 1 -103 7 l-97 11 5 36 c7 46 75 698 75 717 0 18 0 18 214
-7z m-559 -29 c117 -57 158 -196 94 -325 -13 -27 -61 -97 -106 -155 -45 -58
-78 -106 -72 -108 5 -2 68 4 140 13 72 9 132 15 134 13 5 -5 23 -152 19 -156
-5 -6 -547 -72 -552 -68 -2 3 -6 33 -8 68 l-5 63 126 145 c165 191 196 251
160 320 -39 75 -193 55 -267 -35 -9 -11 -18 -18 -21 -15 -19 22 -77 117 -77
127 0 32 108 105 192 128 72 20 185 13 243 -15z m533 -1060 c817 -87 1548
-594 1921 -1330 130 -255 202 -487 247 -790 24 -159 24 -482 0 -645 -79 -544
-301 -1000 -671 -1383 -413 -428 -952 -687 -1540 -742 -940 -87 -1855 381
-2338 1194 -169 285 -272 583 -323 931 -26 176 -24 494 4 678 45 288 117 511
247 767 364 714 1080 1216 1875 1315 130 16 447 19 578 5z m-3468 -2692 c36
-18 49 -32 64 -70 17 -40 18 -53 8 -86 -15 -48 -52 -87 -99 -103 -70 -23 -151
25 -175 103 -10 33 -9 46 8 86 15 38 28 52 64 70 24 12 54 22 65 22 11 0 41
-10 65 -22z m6530 0 c36 -18 49 -32 64 -70 17 -40 18 -53 8 -86 -15 -48 -52
-87 -99 -103 -70 -23 -151 25 -175 103 -10 33 -9 46 8 86 15 38 28 52 64 70
24 12 54 22 65 22 11 0 41 -10 65 -22z m-6172 -554 c3 -19 -16 -26 -213 -82
-119 -34 -221 -60 -226 -57 -5 4 -9 14 -9 24 0 14 39 29 208 78 114 34 214 60
222 59 8 -1 16 -11 18 -22z m5947 -55 c115 -33 210 -61 212 -62 7 -8 -11 -47
-21 -44 -6 2 -103 30 -216 62 -113 32 -209 61 -213 65 -10 9 2 40 17 40 6 0
105 -27 221 -61z m-5902 -91 c4 -12 5 -24 3 -26 -4 -4 -331 -131 -358 -139
-24 -7 -23 -17 17 -118 19 -49 34 -90 32 -91 -1 -1 -11 -4 -22 -8 -18 -5 -25
7 -62 104 -24 61 -43 116 -43 123 0 13 12 18 205 92 66 25 140 54 165 65 58
24 57 24 63 -2z m5777 -47 c146 -58 191 -86 221 -135 40 -66 12 -180 -59 -234
-59 -45 -117 -39 -295 32 -133 54 -147 62 -141 80 4 12 8 22 9 24 1 2 71 -24
154 -58 83 -33 166 -60 185 -60 62 0 116 64 116 139 0 65 -34 93 -187 156 -73
30 -137 55 -142 55 -6 0 -13 5 -16 10 -8 12 4 52 14 48 4 -2 67 -27 141 -57z
m-5537 -477 c71 -126 76 -138 60 -150 -10 -7 -19 -12 -19 -11 -1 1 -17 28 -36
59 l-34 56 -179 -103 c-160 -92 -181 -102 -192 -87 -7 9 -13 19 -13 22 0 3 81
52 180 109 l180 102 -32 60 c-28 51 -31 61 -18 69 8 5 17 10 20 10 3 0 40 -62
83 -136z m5414 37 c46 -23 111 -93 120 -129 5 -21 9 -23 44 -17 35 6 39 5 39
-14 0 -15 -9 -22 -35 -27 -31 -5 -35 -10 -35 -38 -2 -77 -53 -159 -127 -203
-38 -22 -59 -27 -112 -27 -74 0 -116 17 -169 68 -132 124 -83 338 93 404 43
16 134 8 182 -17z m-5290 -241 c12 -18 2 -28 -110 -117 -151 -121 -156 -126
-157 -185 0 -52 29 -97 82 -124 57 -29 72 -22 301 155 47 36 60 41 72 31 8 -7
15 -16 15 -19 0 -8 -186 -155 -245 -194 -84 -55 -172 -38 -239 46 -41 52 -48
135 -14 189 19 30 259 235 278 237 3 1 11 -8 17 -19z m4899 -435 c98 -37 181
-69 183 -71 2 -2 -3 -12 -13 -22 -16 -18 -18 -18 -76 2 l-60 21 -75 -75 -75
-76 26 -61 c22 -52 25 -65 14 -78 -7 -8 -16 -15 -20 -15 -4 0 -53 99 -110 220
-100 212 -103 221 -86 239 18 20 19 20 65 1 26 -10 128 -48 227 -85z m-4539 8
c172 -81 187 -321 27 -423 -117 -74 -264 -37 -339 84 -26 42 -30 59 -30 115 1
182 182 300 342 224z m4213 -285 c144 -165 149 -172 129 -186 -18 -12 -23 -12
-33 -1 -7 8 -75 85 -150 172 -114 130 -136 160 -126 172 7 8 16 15 21 15 5 0
76 -77 159 -172z m-232 65 c6 -16 13 -122 15 -236 2 -114 7 -210 10 -213 3 -3
49 26 102 65 54 39 101 71 105 71 12 0 22 -32 13 -41 -4 -4 -62 -46 -128 -93
-104 -75 -121 -85 -131 -71 -8 10 -14 98 -19 240 -4 124 -10 225 -14 225 -3 0
-49 -31 -101 -69 -84 -62 -96 -67 -106 -53 -10 13 -10 20 -1 29 18 18 231 172
238 173 4 0 11 -12 17 -27z m-3579 -112 c15 -10 11 -41 -44 -346 -7 -38 -12
-71 -10 -73 1 -2 74 55 161 126 142 115 162 128 182 119 12 -6 21 -14 20 -18
-6 -16 -374 -299 -388 -299 -9 0 -21 5 -26 10 -14 14 64 490 80 490 6 0 17 -4
25 -9z m3357 -286 c63 -104 114 -192 114 -196 0 -8 -40 -23 -44 -17 -17 22
-226 379 -226 386 0 11 20 22 34 18 4 -1 59 -87 122 -191z m-221 53 c16 -35
55 -119 88 -188 83 -177 81 -169 53 -176 -19 -4 -68 20 -215 105 -105 60 -191
107 -191 102 0 -4 33 -80 74 -167 41 -87 71 -163 66 -167 -22 -23 -44 6 -111
148 -127 268 -121 253 -98 266 17 9 50 -7 212 -100 106 -60 193 -108 195 -107
1 2 -31 77 -73 166 -58 124 -73 165 -63 171 25 16 35 8 63 -53z m-2735 1 c0
-4 -43 -98 -97 -209 -72 -149 -101 -200 -114 -200 -10 0 -20 4 -23 9 -4 5 39
102 93 214 89 184 101 205 120 200 12 -3 21 -9 21 -14z m264 -107 c7 -12 29
-492 23 -498 -3 -3 -14 -1 -25 5 -14 8 -21 25 -26 73 -3 34 -9 65 -14 69 -4 3
-49 21 -100 39 l-93 33 -42 -48 c-35 -40 -46 -47 -65 -41 -13 4 -22 11 -20 16
2 4 73 87 158 184 110 124 161 175 177 176 12 0 24 -4 27 -8z m2031 -58 c7
-21 40 -118 73 -214 45 -128 58 -176 49 -182 -33 -21 -32 -22 -134 280 -41
122 -46 144 -33 152 23 15 32 8 45 -36z m-1554 -69 c24 -9 55 -24 69 -35 23
-17 24 -20 9 -35 -14 -14 -20 -13 -64 11 -69 39 -155 40 -212 2 -76 -50 -111
-178 -70 -255 38 -72 124 -117 209 -111 l42 3 13 60 c7 33 12 63 13 66 0 4
-17 10 -37 13 -65 12 -71 15 -66 36 6 24 -2 24 85 4 l70 -16 -5 -37 c-12 -78
-32 -156 -42 -163 -21 -16 -159 -8 -200 11 -98 45 -149 118 -148 217 1 179
160 289 334 229z m1147 -10 c227 -68 225 -394 -3 -461 -115 -33 -224 14 -278
119 -68 129 -13 285 118 335 67 25 97 26 163 7z m-645 -51 c55 -19 61 -25 44
-48 -12 -16 -15 -16 -52 0 -51 21 -141 22 -180 2 -124 -65 -142 -249 -33 -332
45 -34 133 -51 188 -36 l40 11 0 64 0 64 -55 6 c-45 6 -55 11 -55 26 0 17 8
19 64 19 93 0 96 -2 95 -69 0 -31 -4 -76 -7 -101 -6 -40 -11 -46 -42 -57 -81
-27 -200 -8 -267 42 -105 81 -109 271 -6 367 58 55 174 74 266 42z m235 -244
c6 -107 8 -198 5 -202 -2 -5 -12 -8 -22 -8 -22 0 -28 36 -36 250 -3 80 -8 159
-11 177 -4 27 -1 32 18 35 31 4 35 -16 46 -252z"/>
<path d="M4266 7339 c-2 -8 -7 -47 -10 -86 l-6 -73 52 -2 c134 -5 161 8 156
80 -4 60 -32 80 -120 89 -53 4 -68 3 -72 -8z"/>
<path d="M3575 5065 c-180 -16 -276 -30 -351 -51 -82 -22 -143 -97 -326 -403
-35 -58 -67 -104 -73 -103 -5 1 -13 25 -16 54 -12 107 -18 111 -150 97 -97 -9
-176 -34 -189 -59 -11 -21 -13 -83 -4 -117 7 -27 49 -47 140 -68 81 -18 108
-34 99 -55 -4 -8 -30 -35 -59 -60 -109 -94 -136 -172 -136 -395 0 -173 36
-787 50 -848 17 -77 24 -79 242 -85 l193 -4 18 41 c9 23 17 52 17 65 0 13 3
37 6 54 6 29 7 30 78 34 52 2 79 9 101 24 30 21 32 21 430 12 256 -5 532 -5
765 1 l366 11 48 -25 c37 -19 65 -25 112 -25 l62 0 7 -64 c3 -35 13 -72 20
-83 8 -10 15 -21 15 -25 0 -5 -422 -9 -937 -11 l-938 -2 1126 -3 1125 -2 27
28 c37 39 43 82 67 490 36 620 27 682 -115 809 -36 32 -65 63 -65 70 0 18 24
28 131 58 51 14 100 33 107 42 6 9 12 43 12 75 0 49 -3 60 -23 72 -33 22 -152
48 -230 50 -79 1 -83 -3 -92 -84 -8 -71 -14 -92 -25 -85 -5 3 -54 82 -110 175
-118 198 -179 282 -231 320 -40 29 -125 45 -364 71 -164 17 -746 20 -930 4z
m781 -35 c306 -17 374 -30 418 -79 19 -21 19 -21 -7 -21 -14 0 -104 8 -199 17
-241 24 -849 24 -1101 0 -98 -9 -190 -17 -204 -17 -26 0 -26 0 -7 21 42 47 79
55 319 74 202 16 550 18 781 5z m-1155 -85 c-85 -97 -250 -380 -258 -444 -8
-62 5 -65 297 -55 321 12 1260 11 1567 0 219 -8 244 -7 268 8 14 9 25 25 25
37 0 38 -144 294 -234 417 -25 34 -46 65 -46 69 0 4 18 -11 41 -32 54 -52 157
-207 249 -375 63 -113 86 -146 148 -205 196 -185 189 -177 206 -235 9 -30 19
-71 22 -91 6 -33 4 -38 -22 -48 l-29 -11 28 5 27 5 0 -72 c0 -88 -27 -539 -36
-587 -8 -47 -24 -70 -59 -80 -45 -14 -190 -30 -370 -40 -134 -8 -163 -7 -180
5 -11 8 -38 27 -59 42 l-40 27 -723 3 -724 4 -64 -42 -64 -42 -101 1 c-187 2
-442 35 -465 61 -8 8 -19 47 -24 85 -13 83 -31 401 -31 534 l0 93 48 -6 47 -6
-47 15 c-56 18 -59 29 -29 124 24 78 65 131 154 201 76 60 125 124 207 270
121 215 255 400 291 400 6 0 -3 -16 -20 -35z m1361 -36 c135 -10 253 -22 262
-25 21 -8 109 -146 174 -273 66 -128 64 -131 -58 -131 -80 0 -89 2 -103 23 -8
12 -35 46 -59 75 -34 39 -50 71 -67 127 -29 99 -38 105 -171 105 -128 0 -137
-6 -169 -116 l-21 -71 -53 -7 c-81 -9 -563 -7 -590 3 -20 8 -28 23 -42 80 -25
101 -39 111 -170 111 -128 0 -135 -5 -170 -122 -18 -57 -38 -100 -59 -125 -18
-21 -38 -48 -45 -60 -11 -21 -18 -23 -109 -23 -124 0 -132 5 -106 62 27 62
100 192 149 269 35 54 49 67 76 73 81 16 341 37 542 43 179 5 220 4 227 -7 14
-23 4 -27 -79 -34 -92 -8 -114 -24 -109 -77 4 -43 34 -59 109 -59 38 0 61 -5
69 -15 7 -8 19 -15 27 -15 8 0 21 7 29 15 10 10 35 15 72 15 78 0 106 16 110
62 4 47 -24 68 -90 68 -64 0 -98 14 -98 41 0 21 2 21 138 14 75 -3 248 -15
384 -26z m-374 -71 c7 -7 12 -20 12 -30 0 -17 -13 -18 -180 -18 -167 0 -180 1
-180 18 0 38 19 42 180 42 108 0 160 -4 168 -12z m-592 -73 c14 -9 31 -46 48
-100 15 -47 36 -101 48 -120 11 -20 18 -38 16 -40 -2 -3 -105 -8 -228 -12
-246 -7 -233 -11 -179 57 16 20 39 72 53 119 13 47 32 91 42 98 26 19 173 17
200 -2z m1047 3 c18 -14 47 -88 47 -120 0 -17 -4 -19 -22 -13 -52 17 -177 17
-224 1 -26 -9 -50 -14 -52 -11 -8 8 28 118 46 138 12 14 32 17 102 17 53 0 92
-5 103 -12z m-1873 -213 c0 -53 -4 -75 -12 -75 -45 0 -213 32 -238 45 -35 18
-39 49 -9 65 33 18 138 38 202 39 l57 1 0 -75z m2720 48 c58 -19 76 -47 47
-72 -16 -13 -118 -36 -209 -46 l-58 -7 0 77 0 78 83 -6 c45 -3 107 -14 137
-24z m-827 -3 c31 -12 69 -37 92 -60 48 -49 38 -52 -19 -5 -62 50 -105 65
-188 65 -81 0 -128 -17 -192 -69 -21 -17 -41 -31 -43 -31 -11 0 21 42 48 61
84 60 205 75 302 39z m-856 -36 c3 -8 0 -27 -6 -41 l-12 -26 -34 33 c-19 19
-35 38 -35 42 0 16 80 9 87 -8z m387 0 c3 -9 6 -27 6 -40 l0 -24 -181 0 -180
0 3 33 3 32 105 6 c214 11 237 10 244 -7z m99 -18 c-37 -45 -53 -45 -53 -1 0
34 1 35 41 35 l41 0 -29 -34z m344 9 c40 -17 73 -43 73 -57 0 -10 -111 -11
-238 -2 -54 4 -89 11 -85 17 3 5 29 20 57 33 60 28 139 32 193 9z m-1947 -95
c58 -6 106 -13 108 -14 1 -2 -6 -14 -17 -27 -18 -23 -20 -23 -38 -7 -11 10
-61 26 -112 37 -51 10 -98 24 -104 30 -7 7 -1 8 24 1 19 -4 81 -14 139 -20z
m2820 16 c0 -2 -42 -13 -94 -25 -52 -12 -106 -31 -119 -41 -25 -20 -25 -20
-41 5 -21 31 -21 31 109 49 112 15 145 18 145 12z m-1030 -1216 c14 -4 -191
-8 -455 -8 -264 0 -469 4 -455 8 14 4 219 8 455 8 237 0 441 -4 455 -8z
m-1769 -64 c57 -8 143 -18 192 -21 l87 -7 0 -63 c0 -90 -1 -90 -195 -90 -123
0 -166 3 -178 14 -13 10 -17 31 -17 97 0 46 1 84 3 84 2 0 50 -6 108 -14z
m2729 -56 c0 -45 -6 -82 -16 -102 l-16 -30 -163 4 c-117 2 -167 7 -179 17 -12
10 -16 31 -16 76 l0 63 88 7 c48 4 128 13 177 20 50 7 98 13 108 14 15 1 17
-8 17 -69z"/>
<path d="M3020 4354 c0 -11 134 -194 180 -247 78 -88 16 -82 795 -82 380 0
711 4 738 8 57 10 90 41 187 177 86 121 108 156 93 147 -7 -4 -50 -60 -97
-125 -97 -136 -130 -169 -177 -182 -40 -12 -1299 -13 -1401 -1 -81 9 -98 22
-201 161 -83 112 -117 154 -117 144z"/>
<path d="M2698 4228 c-27 -20 -38 -63 -38 -144 0 -76 19 -134 54 -163 18 -15
198 -45 370 -62 112 -12 126 -11 150 4 40 27 44 63 10 98 -36 37 -189 129
-349 209 -132 67 -171 78 -197 58z m177 -84 c111 -57 290 -160 328 -188 32
-23 35 -51 7 -66 -20 -11 -103 -4 -320 26 -143 21 -155 25 -176 66 -19 35 -26
166 -11 202 11 28 64 15 172 -40z"/>
<path d="M5245 4221 c-81 -30 -378 -195 -442 -246 -43 -34 -43 -77 0 -109 27
-20 28 -20 185 -3 308 35 334 43 373 119 35 69 22 225 -21 248 -25 13 -37 12
-95 -9z m89 -37 c3 -9 6 -50 6 -92 0 -85 -21 -135 -63 -151 -12 -5 -92 -18
-177 -29 -272 -37 -253 -36 -281 -13 l-24 21 32 29 c39 36 132 91 308 181 137
70 188 84 199 54z"/>
<path d="M2670 3680 c-17 -31 -25 -251 -11 -278 7 -13 31 -27 64 -37 58 -18
259 -32 301 -21 36 9 196 163 196 188 0 11 -5 28 -10 39 -8 14 -7 19 2 19 70
2 -404 110 -481 110 -40 0 -52 -4 -61 -20z m290 -85 c58 -13 123 -31 145 -40
38 -15 32 -15 -120 -10 -179 5 -171 7 -225 -68 -18 -26 -38 -46 -44 -44 -12 4
-14 87 -3 130 4 15 17 37 28 48 24 24 48 23 219 -16z"/>
<path d="M3659 3693 l-47 -4 -7 -89 -7 -89 -67 4 c-210 13 -215 14 -242 34
-21 16 -10 -6 43 -85 54 -81 79 -110 106 -122 33 -15 97 -17 530 -20 511 -3
618 2 655 36 11 9 38 44 60 77 22 33 56 80 76 105 23 30 27 38 11 23 -39 -34
-67 -40 -205 -44 l-130 -4 -5 85 -5 85 -50 7 c-51 6 -633 7 -716 1z m741 -136
l0 -104 -272 -5 c-150 -3 -320 -3 -378 1 l-105 6 3 90 c1 50 4 96 7 103 3 9
88 12 375 12 l370 0 0 -103z"/>
<path d="M5185 3684 c-85 -18 -323 -73 -348 -80 -9 -3 -15 -10 -12 -15 3 -5 1
-18 -5 -30 -10 -17 -7 -27 16 -60 33 -48 125 -134 164 -154 23 -12 47 -13 137
-5 131 12 204 26 228 44 16 12 19 30 19 138 0 157 -9 178 -82 177 -26 0 -78
-7 -117 -15z m105 -64 c37 -20 69 -190 36 -190 -16 0 -60 48 -81 91 l-15 28
-168 -5 c-112 -4 -162 -2 -152 5 19 12 207 60 275 71 73 11 84 11 105 0z"/>
<path d="M5397 3365 c-41 -14 -58 -25 -38 -25 16 0 81 28 81 34 0 7 3 8 -43
-9z"/>
<path d="M2610 3361 c8 -5 31 -11 50 -15 l35 -6 -30 15 c-33 16 -82 21 -55 6z"/>
<path d="M6658 2510 c-48 -26 -84 -73 -99 -132 -18 -65 0 -120 57 -175 96 -92
227 -79 298 31 32 49 37 120 9 113 -61 -17 -93 -17 -99 -2 -9 22 -3 25 52 33
61 9 66 27 22 78 -62 71 -164 94 -240 54z"/>
<path d="M6270 1808 c27 -57 53 -104 58 -106 5 -1 35 25 66 60 42 46 53 64 43
70 -13 7 -206 78 -213 78 -1 0 19 -46 46 -102z"/>
<path d="M1755 1842 c-101 -49 -149 -156 -110 -250 42 -99 154 -148 248 -108
41 17 90 67 111 110 70 147 -102 318 -249 248z"/>
<path d="M2867 1060 c-50 -58 -74 -92 -65 -95 7 -2 44 -16 82 -30 37 -14 70
-25 72 -25 7 0 3 163 -4 202 l-7 38 -78 -90z"/>
<path d="M4488 1030 c-110 -33 -161 -166 -107 -278 52 -107 196 -134 291 -54
36 31 67 94 68 138 0 43 -26 113 -53 143 -46 50 -130 72 -199 51z"/>
</g>
</svg>
