<svg xmlns="http://www.w3.org/2000/svg" version="1.1" xmlns:xlink="http://www.w3.org/1999/xlink" viewBox="0 0 200 200"><rect width="200" height="200" fill="url('#gradient')"></rect><defs><linearGradient id="gradient" gradientTransform="rotate(288 0.5 0.5)"><stop offset="0%" stop-color="#353664"></stop><stop offset="100%" stop-color="#6567cb"></stop></linearGradient></defs><g><g fill="#bebb07" transform="matrix(5.351472418083783,0,0,5.351472418083783,33.91068090484232,138.58603036287957)" stroke="#000000" stroke-width="0.2"><path d="M10.79-2.54L10.79 0L0.87 0L0.87-2.15L5.44-6.95Q7.13-8.88 7.13-10.01L7.13-10.01Q7.13-10.93 6.73-11.41Q6.33-11.88 5.57-11.88L5.57-11.88Q4.81-11.88 4.35-11.25Q3.88-10.61 3.88-9.65L3.88-9.65L0.58-9.65Q0.58-10.96 1.23-12.07Q1.88-13.17 3.05-13.80Q4.21-14.42 5.64-14.42L5.64-14.42Q7.95-14.42 9.19-13.36Q10.44-12.29 10.44-10.30L10.44-10.30Q10.44-9.46 10.13-8.67Q9.81-7.87 9.16-7.00Q8.50-6.12 7.03-4.66L7.03-4.66L5.20-2.54L10.79-2.54ZM20.45 0L17.94-5.02L16.08-5.02L16.08 0L12.66 0L12.66-14.22L18.25-14.22Q20.78-14.22 22.21-13.10Q23.63-11.97 23.63-9.92L23.63-9.92Q23.63-8.44 23.03-7.46Q22.43-6.48 21.15-5.88L21.15-5.88L24.12-0.15L24.12 0L20.45 0ZM16.08-11.57L16.08-7.67L18.25-7.67Q19.23-7.67 19.72-8.18Q20.21-8.69 20.21-9.61Q20.21-10.53 19.72-11.05Q19.22-11.57 18.25-11.57L18.25-11.57L16.08-11.57Z"></path></g></g></svg>