<?xml version="1.0" standalone="no"?>
<!DOCTYPE svg PUBLIC "-//W3C//DTD SVG 20010904//EN"
 "http://www.w3.org/TR/2001/REC-SVG-20010904/DTD/svg10.dtd">
<svg version="1.0" xmlns="http://www.w3.org/2000/svg"
 width="800.000000pt" height="800.000000pt" viewBox="0 0 800.000000 800.000000"
 preserveAspectRatio="xMidYMid meet">

<g transform="translate(0.000000,800.000000) scale(0.100000,-0.100000)"
fill="#000000" stroke="none">
<path d="M3780 7914 c-25 -2 -98 -9 -163 -14 -758 -65 -1528 -389 -2142 -901
-128 -107 -367 -346 -474 -474 -513 -615 -820 -1344 -903 -2141 -16 -153 -16
-615 0 -768 140 -1351 944 -2518 2152 -3122 900 -450 1954 -536 2910 -239 899
280 1662 869 2169 1676 312 498 510 1080 573 1685 16 153 16 615 0 768 -83
796 -391 1526 -903 2141 -107 128 -346 367 -474 474 -612 510 -1348 822 -2125
901 -110 11 -543 21 -620 14z m1057 -1709 c109 -13 311 -38 448 -55 864 -106
902 -112 1073 -180 273 -109 456 -308 507 -550 30 -143 13 -344 -40 -479 -90
-232 -341 -451 -615 -539 -75 -24 -217 -52 -266 -52 -19 0 -34 -5 -34 -11 0
-18 122 -257 189 -368 152 -256 422 -593 599 -748 34 -30 61 -57 60 -59 -2 -1
-107 10 -233 26 -127 16 -331 40 -455 55 -124 15 -235 30 -247 35 -31 13 -144
188 -212 331 -104 220 -177 475 -196 690 l-6 76 -111 12 c-60 7 -113 9 -118 4
-4 -4 -33 -222 -64 -483 -72 -598 -62 -542 -95 -536 -14 3 -185 24 -379 48
l-354 43 6 50 c3 27 29 235 56 460 28 226 64 520 80 655 17 135 48 389 70 565
21 176 58 475 81 665 42 350 45 370 53 370 3 0 94 -11 203 -25z m-1827 -59
c328 -47 536 -178 659 -416 21 -41 46 -97 54 -125 50 -159 62 -376 27 -509
-76 -288 -263 -443 -824 -681 -148 -63 -316 -148 -401 -203 -135 -87 -255
-223 -314 -357 -23 -50 -51 -175 -51 -222 0 -25 1 -25 58 -19 31 4 203 25 382
47 179 22 474 58 655 80 182 22 413 51 515 64 102 13 186 22 187 21 2 -2 43
-328 43 -344 0 -5 -28 -12 -62 -16 -57 -6 -527 -64 -1193 -146 -577 -71 -1147
-141 -1230 -150 -49 -6 -101 -13 -113 -16 l-24 -5 7 88 c36 475 196 835 477
1071 138 116 240 177 538 324 320 157 389 199 476 290 94 99 134 200 134 343
0 77 -18 177 -42 240 -6 17 -31 60 -55 97 -64 98 -162 164 -285 193 -84 20
-245 19 -327 -1 -250 -62 -438 -285 -501 -594 -12 -57 -22 -106 -23 -107 -3
-2 -618 245 -623 250 -7 7 69 154 110 212 58 81 204 220 298 283 237 160 546
273 824 301 60 6 123 13 139 15 83 9 400 4 485 -8z m-2080 -2322 c63 -19 92
-35 143 -83 89 -82 128 -225 94 -342 -73 -249 -375 -336 -566 -163 -45 40 -86
102 -102 156 -15 50 -12 167 5 217 61 171 251 267 426 215z m6360 0 c153 -43
261 -202 247 -361 -19 -200 -210 -349 -402 -314 -250 46 -371 326 -231 535 87
129 234 183 386 140z m-1242 -1831 c3 -21 0 -23 -47 -23 -43 0 -51 3 -51 18 0
28 10 33 55 30 33 -2 41 -7 43 -25z m192 2 c0 -23 -3 -25 -50 -25 -42 0 -50 3
-50 18 0 27 9 32 57 32 39 0 43 -2 43 -25z m198 -2 c3 -21 0 -23 -47 -23 -48
0 -51 2 -51 26 0 24 2 25 48 22 40 -3 47 -6 50 -25z m142 2 c0 -18 -5 -25 -20
-25 -15 0 -20 7 -20 25 0 18 5 25 20 25 15 0 20 -7 20 -25z m-3082 -12 c3 -21
0 -23 -47 -23 -48 0 -51 2 -51 26 0 24 2 25 48 22 40 -3 47 -6 50 -25z m192 2
c0 -23 -3 -25 -50 -25 -42 0 -50 3 -50 18 0 27 9 32 57 32 39 0 43 -2 43 -25z
m200 0 c0 -23 -3 -25 -50 -25 -47 0 -50 2 -50 25 0 23 3 25 50 25 47 0 50 -2
50 -25z m190 0 c0 -23 -4 -25 -45 -25 -41 0 -45 2 -45 25 0 23 4 25 45 25 41
0 45 -2 45 -25z m200 0 c0 -23 -3 -25 -50 -25 -47 0 -50 2 -50 25 0 23 3 25
50 25 47 0 50 -2 50 -25z m200 0 c0 -23 -3 -25 -50 -25 -47 0 -50 2 -50 25 0
23 3 25 50 25 47 0 50 -2 50 -25z m190 0 c0 -23 -4 -25 -45 -25 -41 0 -45 2
-45 25 0 23 4 25 45 25 41 0 45 -2 45 -25z m200 0 c0 -23 -3 -25 -50 -25 -47
0 -50 2 -50 25 0 23 3 25 50 25 47 0 50 -2 50 -25z m190 0 c0 -23 -4 -25 -45
-25 -41 0 -45 2 -45 25 0 23 4 25 45 25 41 0 45 -2 45 -25z m200 -1 c0 -24 -2
-25 -47 -22 -41 3 -48 6 -51 26 -3 20 0 22 47 22 48 0 51 -2 51 -26z m198 4
c-3 -20 -10 -23 -50 -26 -46 -3 -48 -2 -48 22 0 24 3 26 51 26 47 0 50 -2 47
-22z m192 2 c0 -17 -7 -20 -40 -20 -22 0 -43 -1 -47 -2 -5 -2 -9 7 -11 20 -3
20 0 22 47 22 44 0 51 -3 51 -20z m200 0 c0 -17 -7 -20 -50 -20 -43 0 -50 3
-50 20 0 17 7 20 50 20 43 0 50 -3 50 -20z m-4312 -17 c3 -21 0 -23 -47 -23
-48 0 -51 2 -51 26 0 24 2 25 48 22 40 -3 47 -6 50 -25z m192 2 c0 -23 -3 -25
-50 -25 -47 0 -50 2 -50 25 0 23 3 25 50 25 47 0 50 -2 50 -25z m200 0 c0 -23
-3 -25 -50 -25 -47 0 -50 2 -50 25 0 23 3 25 50 25 47 0 50 -2 50 -25z m190
-1 c0 -24 -2 -25 -47 -22 -34 2 -48 7 -49 18 -1 26 6 30 52 30 41 0 44 -2 44
-26z m200 1 c0 -23 -3 -25 -50 -25 -47 0 -50 2 -50 25 0 23 3 25 50 25 47 0
50 -2 50 -25z m195 0 c0 -17 -8 -20 -47 -23 -46 -3 -48 -2 -48 23 0 25 2 26
48 23 39 -3 47 -6 47 -23z m195 -1 c0 -24 -2 -25 -47 -22 -41 3 -48 6 -51 26
-3 20 0 22 47 22 48 0 51 -2 51 -26z m198 4 c-3 -20 -10 -23 -50 -26 -46 -3
-48 -2 -48 22 0 24 3 26 51 26 47 0 50 -2 47 -22z m192 -3 c0 -23 -4 -25 -45
-25 -41 0 -45 2 -45 25 0 23 4 25 45 25 41 0 45 -2 45 -25z m200 5 c0 -39 -93
-41 -98 -2 -3 20 0 22 47 22 44 0 51 -3 51 -20z"/>
<path d="M5327 5628 c-27 -223 -101 -823 -113 -918 l-5 -45 148 -18 c81 -9
177 -17 213 -17 295 1 506 259 535 650 20 278 -92 453 -336 524 -59 17 -321
56 -378 56 l-36 0 -28 -232z"/>
</g>
</svg>
